<svg xmlns="http://www.w3.org/2000/svg" version="1.1" xmlns:xlink="http://www.w3.org/1999/xlink" width="50" height="50" x="0" y="0" viewBox="0 0 512 512" style="enable-background:new 0 0 512 512" xml:space="preserve" class=""><g><path d="M442.371 116.217v124.251H256M334.471 54.096h107.9l31.071 62.121H263.02M301.78 54.096H200.91M256 153.457V488.97H69.629V153.467" style="stroke-width:15;stroke-linecap:round;stroke-linejoin:round;stroke-miterlimit:10;" fill="none" stroke="#8d4d2e" stroke-width="15" stroke-linecap="round" stroke-linejoin="round" stroke-miterlimit="10" data-original="#000000" opacity="1" class=""></path><path d="m261.011 158.466-97.71-97.71-98.779 97.766c-6.14 6.08-16.051 6.03-22.132-.114-6.08-6.143-6.029-16.052.114-22.132L152.349 27.557c6.119-6.058 15.984-6.033 22.075.057l108.72 108.719c6.111 6.111 6.203 16.113 0 22.133-6.66 6.464-15.91 5.339-22.133 0zM179.159 333.659h30.251V488.97h-93.191V333.659h30.25M116.219 209.405h93.188v93.188h-93.188z" style="stroke-width:15;stroke-linecap:round;stroke-linejoin:round;stroke-miterlimit:10;" fill="none" stroke="#8d4d2e" stroke-width="15" stroke-linecap="round" stroke-linejoin="round" stroke-miterlimit="10" data-original="#000000" opacity="1" class=""></path><circle cx="163.358" cy="147.28" r="31.062" style="stroke-width:15;stroke-linecap:round;stroke-linejoin:round;stroke-miterlimit:10;" fill="none" stroke="#8d4d2e" stroke-width="15" stroke-linecap="round" stroke-linejoin="round" stroke-miterlimit="10" data-original="#000000" opacity="1" class=""></circle><path d="M163.358 209.405v93.309M116.219 255.999h93.187M147.827 424.803v-13.491M38.563 395.78h0c-17.155 0-31.063-13.907-31.063-31.062V271.53c0-17.155 13.907-31.062 31.062-31.062h0c17.155 0 31.062 13.907 31.062 31.062v93.188c.001 17.155-13.906 31.062-31.061 31.062zM38.562 333.655v155.313M7.5 488.968h62.671M488.972 396.589v92.381H256V302.588h232.972v61.321" style="stroke-width:15;stroke-linecap:round;stroke-linejoin:round;stroke-miterlimit:10;" fill="none" stroke="#8d4d2e" stroke-width="15" stroke-linecap="round" stroke-linejoin="round" stroke-miterlimit="10" data-original="#000000" opacity="1" class=""></path><path d="M504.5 302.593H256v-62.125h217.438zM318.125 147.28h124.25v62.125h-124.25zM287.762 333.655h154.613v93.188H287.762zM365.068 333.655v93.188M488.969 488.968H504.5" style="stroke-width:15;stroke-linecap:round;stroke-linejoin:round;stroke-miterlimit:10;" fill="none" stroke="#8d4d2e" stroke-width="15" stroke-linecap="round" stroke-linejoin="round" stroke-miterlimit="10" data-original="#000000" opacity="1" class=""></path></g></svg>