<svg xmlns="http://www.w3.org/2000/svg" version="1.1" xmlns:xlink="http://www.w3.org/1999/xlink" width="75" height="75" x="0" y="0" viewBox="0 0 512 512" style="enable-background:new 0 0 512 512" xml:space="preserve" class=""><g><path d="M386.406 255.063a6.996 6.996 0 0 0 4.71-2.554l20.82-25.681a7 7 0 0 0-1.029-9.846L271.051 103.59c-8.618-7.18-21.183-7.252-29.888-.172l-140.07 113.564a7 7 0 0 0-1.03 9.846l20.822 25.682a6.986 6.986 0 0 0 5.441 2.591 6.97 6.97 0 0 0 4.404-1.562l14.844-12.035v151.47c0 11.511 9.364 20.875 20.874 20.875H345.55c11.511 0 20.875-9.364 20.875-20.875V241.503l14.845 12.036a6.996 6.996 0 0 0 5.136 1.524zm-259.053-16.808-12.006-14.807 134.641-109.162c3.538-2.876 8.634-2.845 12.121.075l.086.071 134.459 109.016-12.004 14.806-124.24-100.729a7 7 0 0 0-8.816 0zm32.222 38.718h31.203v68.35h-31.203zM282.08 399.849h-52.16V276.973h52.16zm70.346-54.527h-31.203v-68.35h31.203zm0-82.349h-38.203a7 7 0 0 0-7 7v82.35a7 7 0 0 0 7 7h38.203v33.651a6.883 6.883 0 0 1-6.875 6.875H296.08V269.973a7 7 0 0 0-7-7h-66.16a7 7 0 0 0-7 7v129.876h-49.471a6.882 6.882 0 0 1-6.874-6.875v-33.651h38.203a7 7 0 0 0 7-7v-82.35a7 7 0 0 0-7-7h-38.203v-32.819l96.426-78.178 96.425 78.177zm-123.155-48.254c0 14.739 11.991 26.73 26.729 26.73 14.739 0 26.73-11.991 26.73-26.73S270.739 187.99 256 187.99c-14.738-.001-26.729 11.99-26.729 26.729zm39.459 0c0 7.02-5.711 12.73-12.73 12.73s-12.729-5.71-12.729-12.73c0-7.019 5.71-12.729 12.729-12.729s12.73 5.71 12.73 12.729zM129.396 444.565a7 7 0 0 1-7 7H90.721a7 7 0 1 1 0-14h31.675a7 7 0 0 1 7 7zm224.163 0a7 7 0 0 1-7 7h-31.675a7 7 0 1 1 0-14h31.675a7 7 0 0 1 7 7zm-149.442 0a7 7 0 0 1-7 7h-31.675a7 7 0 1 1 0-14h31.675a7 7 0 0 1 7 7zm36.046 7a7 7 0 1 1 0-14h31.675a7 7 0 1 1 0 14zm188.116-7a7 7 0 0 1-7 7h-31.675a7 7 0 1 1 0-14h31.675a7 7 0 0 1 7 7zm74.721 0a7 7 0 0 1-7 7h-31.675a7 7 0 1 1 0-14H496a7 7 0 0 1 7 7zm-448.325 0a7 7 0 0 1-7 7H16a7 7 0 1 1 0-14h31.675a7 7 0 0 1 7 7zM450.5 90.721v31.675a7 7 0 1 1-14 0V90.721a7 7 0 1 1 14 0zm0-74.721v31.675a7 7 0 1 1-14 0V16a7 7 0 1 1 14 0zm0 149.441v31.675a7 7 0 1 1-14 0v-31.675a7 7 0 1 1 14 0zm0 149.442v31.675a7 7 0 1 1-14 0v-31.675a7 7 0 1 1 14 0zm0 149.442V496a7 7 0 1 1-14 0v-31.675a7 7 0 1 1 14 0zm0-74.721v31.674a7 7 0 1 1-14 0v-31.674a7 7 0 1 1 14 0zm0-149.442v31.675a7 7 0 1 1-14 0v-31.675a7 7 0 1 1 14 0zM75.372 314.883v31.675a7 7 0 1 1-14 0v-31.675a7 7 0 1 1 14 0zm0 74.721v31.674a7 7 0 1 1-14 0v-31.674a7 7 0 1 1 14 0zm0 74.721V496a7 7 0 1 1-14 0v-31.675a7 7 0 1 1 14 0zm0-224.163v31.675a7 7 0 1 1-14 0v-31.675a7 7 0 1 1 14 0zm0-224.162v31.675a7 7 0 1 1-14 0V16a7 7 0 1 1 14 0zm0 74.721v31.675a7 7 0 1 1-14 0V90.721a7 7 0 1 1 14 0zm0 74.72v31.675a7 7 0 1 1-14 0v-31.675a7 7 0 1 1 14 0zm83.07-96.149a7 7 0 0 1 7-7h31.675a7 7 0 1 1 0 14h-31.675a7 7 0 0 1-7-7zm74.721 0a7 7 0 0 1 7-7h31.675a7 7 0 1 1 0 14h-31.675a7 7 0 0 1-7-7zm224.162 0a7 7 0 0 1 7-7H496a7 7 0 1 1 0 14h-31.675a7 7 0 0 1-7-7zm-149.441 0a7 7 0 0 1 7-7h31.675a7 7 0 1 1 0 14h-31.675a7 7 0 0 1-7-7zm-224.163 0a7 7 0 0 1 7-7h31.675a7 7 0 1 1 0 14H90.721a7 7 0 0 1-7-7zm-29.046 0a7 7 0 0 1-7 7H16a7 7 0 1 1 0-14h31.675a7 7 0 0 1 7 7zm373.604 0a7 7 0 0 1-7 7h-31.675a7 7 0 1 1 0-14h31.675a7 7 0 0 1 7 7zM296.08 471.5V496a7 7 0 1 1-14 0v-5.25h-52.16V496a7 7 0 1 1-14 0v-24.5a7 7 0 1 1 14 0v5.25h52.16v-5.25a7 7 0 1 1 14 0z" fill="#8d4d2e" opacity="1" data-original="#000000" class=""></path></g></svg>