<svg xmlns="http://www.w3.org/2000/svg" version="1.1" xmlns:xlink="http://www.w3.org/1999/xlink" width="50" height="50" x="0" y="0" viewBox="0 0 512 512" style="enable-background:new 0 0 512 512" xml:space="preserve" class=""><g><path d="M103.975 8H16a8 8 0 0 0-8 8v480a8 8 0 0 0 8 8h87.975a8 8 0 0 0 8-8V16a8 8 0 0 0-8-8zm-8 480H24v-44h15.763a8 8 0 0 0 0-16H24v-44h25.166a8 8 0 0 0 0-16H24v-44h15.763a8 8 0 0 0 0-16H24v-44h25.166a8 8 0 0 0 0-16H24v-44h15.763a8 8 0 0 0 0-16H24v-44h25.166a8 8 0 0 0 0-16H24V84h15.763a8 8 0 0 0 0-16H24V24h71.975zm348.022-9.629a8 8 0 0 1-3.076 6.305l-22.574 17.629a7.964 7.964 0 0 1-4.918 1.695 8 8 0 0 1-4.93-14.306l4.257-3.324H163.609l4.257 3.324a8 8 0 1 1-9.848 12.61l-22.574-17.629a8 8 0 0 1 0-12.61l22.575-17.629a8 8 0 1 1 9.848 12.61l-4.256 3.324h249.145l-4.256-3.324a8 8 0 0 1-1.381-11.229 8 8 0 0 1 11.229-1.381l22.575 17.629a8.007 8.007 0 0 1 3.074 6.306zm-303.631-34.373h283.746a8 8 0 0 0 8-8V151.817a8 8 0 0 0-8-8h-36.384c5.444-11.651 8.791-23.34 8.791-34.748 0-44.957-36.575-81.531-81.531-81.531s-81.532 36.575-81.532 81.531c0 11.408 3.346 23.096 8.791 34.748h-101.88a8 8 0 0 0-8 8v284.181a7.999 7.999 0 0 0 7.999 8zm8-188.548 31.469-31.469 167.57 204.017H148.366zM368.11 427.998l-34.825-42.399 82.827-82.827v125.227H368.11zm-53.122-384.46c36.134 0 65.531 29.397 65.531 65.531 0 30.893-34.16 69.823-59.103 98.248-2.209 2.519-4.359 4.968-6.429 7.346-2.07-2.378-4.219-4.827-6.428-7.345-24.943-28.426-59.104-67.356-59.104-98.249.001-36.134 29.399-65.531 65.533-65.531zm-18.455 174.334c4.431 5.049 8.616 9.818 12.346 14.229a8 8 0 0 0 12.216 0c3.73-4.411 7.916-9.181 12.347-14.231l3.853-4.395c32.226 2.752 46.25 10.348 48.525 13.473-1.231 1.602-6.501 5.52-20.194 8.988-13.861 3.511-31.845 5.445-50.639 5.445s-36.777-1.934-50.639-5.445c-13.693-3.468-18.963-7.387-20.194-8.988 2.274-3.125 16.299-10.721 48.525-13.473 1.295 1.479 2.584 2.949 3.854 4.397zm-16.505-19.067c-21.335 2.919-52.061 10.237-52.061 28.154 0 24.014 54.699 30.421 87.02 30.421s87.02-6.407 87.02-30.421c0-17.917-30.726-25.235-52.061-28.154 10.476-12.418 20.799-25.58 29.062-38.989h37.104v120.327l-93.031 93.031-131.878-160.561 52.796-52.796h6.968c8.262 13.408 18.586 26.57 29.061 38.988zm-58.656-38.988-73.005 73.006v-73.006zm280.933 258.526-17.629 22.575a8 8 0 0 1-12.61 0l-17.629-22.574a8 8 0 0 1 12.61-9.848l3.324 4.257V183.606l-3.325 4.257a8 8 0 0 1-11.229 1.381 8 8 0 0 1-1.381-11.229l17.63-22.574a8 8 0 0 1 12.61 0l17.628 22.574a8 8 0 0 1-12.61 9.848l-3.323-4.256v229.144l3.324-4.256a8 8 0 0 1 12.61 9.848zM370.509 109.069c0-30.614-24.907-55.521-55.521-55.521s-55.521 24.906-55.521 55.521 24.907 55.521 55.521 55.521 55.521-24.906 55.521-55.521zm-95.042 0c0-21.792 17.729-39.521 39.521-39.521s39.521 17.729 39.521 39.521-17.729 39.521-39.521 39.521-39.521-17.729-39.521-39.521z" fill="#8d4d2e" opacity="1" data-original="#000000" class=""></path></g></svg>