<svg xmlns="http://www.w3.org/2000/svg" version="1.1" xmlns:xlink="http://www.w3.org/1999/xlink" width="50" height="50" x="0" y="0" viewBox="0 0 62 62" style="enable-background:new 0 0 512 512" xml:space="preserve" class=""><g><path d="M36 12c0-2.206-1.794-4-4-4h-4v12h2v-4h2c2.206 0 4-1.794 4-4zm-6-2h2c1.103 0 2 .897 2 2s-.897 2-2 2h-2z" fill="#8d4d2e" opacity="1" data-original="#000000" class=""></path><path d="M62 44c0-1.103-.897-2-2-2h-1.686l-.199-3.187A3.005 3.005 0 0 0 55.121 36H42.879a3.005 3.005 0 0 0-2.994 2.813L39.686 42H38c-1.103 0-2 .897-2 2 0 1.61.961 2.992 2.335 3.625A4.97 4.97 0 0 0 37 51v4c0 1.302.839 2.402 2 2.816V60h-5V23.539a10.042 10.042 0 0 0 6.018-5.246l16.703-9.835c.188-.132.36-.286.512-.458H59c1.654 0 3-1.346 3-3 0-2.757-2.243-5-5-5H5C2.243 0 0 2.243 0 5c0 1.654 1.346 3 3 3h1.77c.161.179.35.344.576.5l16.635 9.792a10.04 10.04 0 0 0 6.018 5.247V60h-5v-2.184a2.996 2.996 0 0 0 2-2.816v-4a4.97 4.97 0 0 0-1.335-3.375A3.994 3.994 0 0 0 26 44c0-1.103-.897-2-2-2h-1.686l-.199-3.187A3.005 3.005 0 0 0 19.121 36H6.879a3.005 3.005 0 0 0-2.994 2.813L3.686 42H2c-1.103 0-2 .897-2 2 0 1.61.961 2.992 2.335 3.625A4.97 4.97 0 0 0 1 51v4c0 1.302.839 2.402 2 2.816V60H0v2h62v-2h-3v-2.184A2.996 2.996 0 0 0 61 55v-4a4.97 4.97 0 0 0-1.335-3.375A3.995 3.995 0 0 0 62 44zM23 55c0 .551-.449 1-1 1H4c-.551 0-1-.449-1-1v-1h20zM5.802 48.02c.117.32.198.646.198.98 0 1.654-1.346 3-3 3v-1a2.995 2.995 0 0 1 2.802-2.98zM23 51v1c-1.654 0-3-1.346-3-3 0-.334.081-.66.198-.98A2.995 2.995 0 0 1 23 51zm-3.974 1H6.974A4.948 4.948 0 0 0 8 49c0-.339-.046-.672-.115-1h10.23A4.851 4.851 0 0 0 18 49c0 1.13.391 2.162 1.026 3zM24 44c0 .908-.611 1.667-1.441 1.911L22.439 44zM6.879 38h12.242c.527 0 .965.412.998.938l.445 7.119C20.376 46.036 20.193 46 20 46H6c-.193 0-.376.036-.564.057l.445-7.119c.033-.526.471-.938.998-.938zm-3.318 6-.119 1.911A1.996 1.996 0 0 1 2 44zM5 60v-2h2v2zm4 0v-2h8v2zm10 0v-2h2v2zM38.981 8h6.571l-5.045 2.913A9.958 9.958 0 0 0 38.981 8zm1.899 7.464c.071-.479.12-.965.12-1.464 0-.348-.018-.692-.053-1.031L49.552 8h4.01zM3 6c-.551 0-1-.449-1-1 0-1.654 1.346-3 3-3h52c1.654 0 3 1.346 3 3 0 .551-.449 1-1 1H36.975C35.305 4.75 33.241 4 31 4s-4.305.75-5.975 2zm18.493 4.913L16.448 8h6.571a9.958 9.958 0 0 0-1.526 2.913zM8.433 8h4.015l8.605 4.969c-.035.339-.053.683-.053 1.031 0 .499.049.985.12 1.464zM23 14c0-4.411 3.589-8 8-8s8 3.589 8 8-3.589 8-8 8-8-3.589-8-8zm7 9.949a10.007 10.007 0 0 0 2 0V60h-2zM59 52c-1.654 0-3-1.346-3-3 0-.334.081-.66.198-.98A2.995 2.995 0 0 1 59 51zm-17.198-3.98c.117.32.198.646.198.98 0 1.654-1.346 3-3 3v-1a2.995 2.995 0 0 1 2.802-2.98zm2.083-.02h10.23A4.851 4.851 0 0 0 54 49c0 1.13.391 2.162 1.026 3H42.974A4.948 4.948 0 0 0 44 49c0-.339-.046-.672-.115-1zm-1.006-10h12.242c.527 0 .965.412.998.938l.445 7.119C56.376 46.036 56.193 46 56 46H42c-.193 0-.376.036-.564.057l.445-7.119c.033-.526.471-.938.998-.938zm-3.318 6-.119 1.911A1.996 1.996 0 0 1 38 44zM41 60v-2h2v2zm4 0v-2h8v2zm10 0v-2h2v2zm4-5c0 .551-.449 1-1 1H40c-.551 0-1-.449-1-1v-1h20zm-.441-9.089L58.439 44H60c0 .908-.611 1.667-1.441 1.911z" fill="#8d4d2e" opacity="1" data-original="#000000" class=""></path></g></svg>