<svg id="Layer_1" viewBox="0 0 100 100" height="100" width="100" xmlns="http://www.w3.org/2000/svg" version="1.1" xmlns:xlink="http://www.w3.org/1999/xlink" xmlns:svgjs="http://svgjs.dev/svgjs"><g width="100%" height="100%" transform="matrix(1,0,0,1,0,0)"><path d="m89.21 26.59c-8.76-8.51-25.34-13.38-42.26-12.4-23.29 1.36-40.18 17.59-39.27 37.76.3 6.73 2.22 11.6 5.85 14.9 5.77 5.24 15.09 5.96 28.22 5.33 1.99 4.7 2.92 10.97-3.01 15.36-.34.25-.48.69-.36 1.09s.49.69.91.71c.02 0 .21.01.55.01 3.55 0 23.17-.82 24.65-18.77 21.3-2.72 31.03-11.46 31.5-28.26.17-5.9-2.11-11.19-6.78-15.73zm-25.78 42.11c-.48.06-.86.46-.88.94-.74 14.84-14.6 17.29-20.53 17.66 5.11-5.51 3.11-12.58 1.29-16.56-.16-.36-.52-.58-.91-.58-.02 0-.03 0-.05 0-12.99.65-22.11.08-27.47-4.78-3.22-2.92-4.92-7.34-5.2-13.51-.86-19.06 15.22-34.39 37.39-35.68 16.12-.93 32.5 3.83 40.75 11.84 4.25 4.13 6.33 8.92 6.18 14.24-.46 16.03-9.61 23.93-30.57 26.43z" fill="#8d4d2e" fill-opacity="1" data-original-color="#000000ff" stroke="none" stroke-opacity="1"/><path d="m92.57 59.92c-6.33 9.99-23.38 11.89-23.56 11.91-.55.06-.95.55-.89 1.1.05.51.49.9.99.9.03 0 .07 0 .1-.01.74-.08 18.19-2.02 25.04-12.83.3-.47.16-1.08-.31-1.38-.46-.3-1.08-.16-1.37.31z" fill="#8d4d2e" fill-opacity="1" data-original-color="#000000ff" stroke="none" stroke-opacity="1"/><path d="m4.81 56.84c-.54.11-.9.63-.79 1.17.09.45 2.22 11.03 10.2 13.91.11.04.23.06.34.06.41 0 .79-.25.94-.66.19-.52-.08-1.09-.6-1.28-6.91-2.49-8.9-12.31-8.92-12.41-.1-.54-.63-.9-1.17-.79z" fill="#8d4d2e" fill-opacity="1" data-original-color="#000000ff" stroke="none" stroke-opacity="1"/><path d="m7.37 37.44c.41 0 .8-.26.95-.67.06-.16 5.79-16.18 24.07-21.49.53-.15.84-.71.68-1.24-.15-.53-.71-.84-1.24-.68-19.32 5.6-25.17 22.06-25.41 22.76-.18.52.1 1.09.62 1.27.11.03.22.05.33.05z" fill="#8d4d2e" fill-opacity="1" data-original-color="#000000ff" stroke="none" stroke-opacity="1"/><path d="m28.88 36.37c-2.88-.4-5.69 3.17-6.38 8.13-.31 2.26-.14 4.46.5 6.2.71 1.96 1.93 3.15 3.42 3.36.15.02.3.03.44.03 2.73 0 5.28-3.46 5.93-8.16.7-4.96-1.02-9.16-3.91-9.56zm1.95 9.28c-.56 4.04-2.62 6.64-4.12 6.42-.72-.1-1.38-.85-1.82-2.06-.52-1.44-.67-3.3-.4-5.24.54-3.89 2.47-6.44 3.95-6.44.06 0 .11 0 .17.01 1.5.22 2.78 3.27 2.22 7.31z" fill="#8d4d2e" fill-opacity="1" data-original-color="#000000ff" stroke="none" stroke-opacity="1"/><path d="m40.12 35.36c-1.56-.22-3.14.64-4.43 2.42-1.15 1.6-1.97 3.79-2.3 6.19-.73 5.25 1.09 9.7 4.13 10.12.16.02.32.03.48.03 1.41 0 2.79-.86 3.95-2.46 1.15-1.6 1.97-3.79 2.3-6.19.73-5.24-1.08-9.69-4.13-10.11zm2.15 9.85c-.29 2.08-.98 3.96-1.94 5.3-.82 1.13-1.74 1.72-2.53 1.61-1.63-.23-3.03-3.51-2.42-7.86.29-2.08.98-3.96 1.94-5.3.75-1.04 1.59-1.63 2.34-1.63.06 0 .13 0 .19.01 1.63.23 3.02 3.51 2.42 7.87z" fill="#8d4d2e" fill-opacity="1" data-original-color="#000000ff" stroke="none" stroke-opacity="1"/><path d="m49.8 32.88c-2.14.57-3.63 2.36-3.99 4.8-.3 2.04-.22 4.37.24 6.94.73 4.14 2.18 7.46 2.24 7.6.17.37.53.6.92.6.13 0 .27-.03.4-.08.51-.22.73-.81.51-1.32-.01-.03-1.23-2.82-1.95-6.35 1.83-.83 4.55-2.58 6.5-6.15.94-1.72.92-3.42-.05-4.65-1.03-1.33-2.97-1.88-4.82-1.39zm3.11 5.07c-1.52 2.78-3.55 4.28-5.08 5.06-.24-1.86-.25-3.54-.03-5.03.24-1.65 1.16-2.8 2.52-3.16.28-.07.57-.11.85-.11.78 0 1.49.28 1.89.79.57.74.23 1.74-.15 2.45z" fill="#8d4d2e" fill-opacity="1" data-original-color="#000000ff" stroke="none" stroke-opacity="1"/><path d="m61.04 33.64c-1.36.17-2.49 1-3.35 2.47-1.82 3.12.68 5.49 2.69 7.39 1.54 1.46 2.99 2.83 2.76 4.32-.3 1.98-1.9 3.05-3.25 3.07-.64.05-1.75-.23-2.04-1.87-.09-.54-.61-.91-1.15-.82s-.91.61-.82 1.15c.37 2.15 1.93 3.54 3.99 3.54h.04c2.17-.02 4.73-1.69 5.2-4.76.39-2.52-1.61-4.41-3.37-6.07-2.28-2.16-3.25-3.35-2.33-4.93.53-.91 1.14-1.4 1.86-1.49 1.39-.17 3.04 1.16 3.55 1.68.38.39 1.02.4 1.41.02.4-.38.41-1.02.02-1.41-.09-.12-2.53-2.61-5.21-2.29z" fill="#8d4d2e" fill-opacity="1" data-original-color="#000000ff" stroke="none" stroke-opacity="1"/><path d="m73.43 32.78c-.51.21-.75.8-.54 1.31.04.11 4.41 10.88-.53 17.11-.34.43-.27 1.06.16 1.4.18.15.4.22.62.22.29 0 .59-.13.78-.38 5.68-7.15 1.01-18.63.81-19.11-.21-.52-.79-.76-1.3-.55z" fill="#8d4d2e" fill-opacity="1" data-original-color="#000000ff" stroke="none" stroke-opacity="1"/><path d="m70.15 55.59c-.19.19-.29.45-.29.71 0 .13.02.26.07.38s.12.23.22.33c.19.19.44.29.71.29.26 0 .51-.1.7-.29.1-.1.17-.21.22-.33s.07-.25.07-.38c0-.26-.1-.52-.29-.71-.37-.37-1.05-.37-1.41 0z" fill="#8d4d2e" fill-opacity="1" data-original-color="#000000ff" stroke="none" stroke-opacity="1"/></g></svg>