<svg xmlns="http://www.w3.org/2000/svg" version="1.1" xmlns:xlink="http://www.w3.org/1999/xlink" width="75" height="75" x="0" y="0" viewBox="0 0 3872.983 3872.983" style="enable-background:new 0 0 512 512" xml:space="preserve" class=""><g><path fill-rule="evenodd" d="M1931.51 1156.748H296.586c-32.239 0-58.381-26.141-58.381-58.38V820.203c0-32.239 26.141-58.38 58.381-58.38l1634.925-.027c32.237 0 58.378 26.141 58.378 58.378v278.168c-.001 32.265-26.142 58.406-58.379 58.406zM354.937 1039.99H1873.13V878.581H354.937z" clip-rule="evenodd" fill="#8d4d2e" opacity="1" data-original="#000000" class=""></path><path fill-rule="evenodd" d="M1734.707 2882.51c-32.239 0-58.38-26.141-58.38-58.378V1098.368c0-32.237 26.141-58.378 58.38-58.378 32.237 0 58.378 26.141 58.378 58.378v1725.763c0 32.238-26.141 58.379-58.378 58.379zm-1241.347 0c-32.237 0-58.378-26.141-58.378-58.378V1098.368c0-32.237 26.141-58.378 58.378-58.378 32.239 0 58.381 26.141 58.381 58.378v1725.763c-.001 32.238-26.115 58.379-58.381 58.379z" clip-rule="evenodd" fill="#8d4d2e" opacity="1" data-original="#000000" class=""></path><path fill-rule="evenodd" d="M1734.707 2644.076H493.36c-32.237 0-58.378-26.14-58.378-58.378 0-32.24 26.141-58.38 58.378-58.38h1241.347c32.237 0 58.378 26.14 58.378 58.38 0 32.238-26.141 58.378-58.378 58.378zm0-280.061H493.36c-32.237 0-58.378-26.141-58.378-58.378 0-32.24 26.141-58.381 58.378-58.381h1241.347c32.237 0 58.378 26.141 58.378 58.381 0 32.237-26.141 58.378-58.378 58.378zM1537.9 2112.347H690.166c-32.239 0-58.38-26.143-58.38-58.38v-703.929c0-32.237 26.141-58.38 58.38-58.38H1537.9c32.239 0 58.38 26.143 58.38 58.38v703.929c.001 32.238-26.113 58.38-58.38 58.38zm-789.356-116.758h731.006v-587.173H748.544z" clip-rule="evenodd" fill="#8d4d2e" opacity="1" data-original="#000000" class=""></path><path fill-rule="evenodd" d="M1114.033 1847.415c-107.312 0-194.635-87.322-194.635-194.633 0-107.312 87.322-194.635 194.635-194.635s194.635 87.322 194.635 194.635c0 107.31-87.322 194.633-194.635 194.633zm0-272.483c-42.918 0-77.876 34.928-77.876 77.876 0 42.946 34.928 77.877 77.876 77.877s77.877-34.931 77.877-77.85c0-42.974-34.929-77.903-77.877-77.903z" clip-rule="evenodd" fill="#8d4d2e" opacity="1" data-original="#000000" class=""></path><path fill-rule="evenodd" d="M1314.626 2112.347c-32.237 0-58.378-26.143-58.378-58.38v-155.174c0-41.794-26.828-78.782-66.755-91.963-30.618-10.104-47.231-43.14-37.1-73.757 10.133-30.618 43.14-47.23 73.757-37.097 87.844 29.024 146.856 110.526 146.856 202.817v155.174c0 32.238-26.141 58.38-58.38 58.38zm-401.158 0c-32.237 0-58.381-26.143-58.381-58.38v-155.174c0-92.291 59.012-173.793 146.856-202.817 30.59-10.133 63.624 6.479 73.757 37.097 10.104 30.617-6.48 63.624-37.099 73.757-39.926 13.208-66.755 50.142-66.755 91.963v155.174c-.027 32.238-26.141 58.38-58.378 58.38zM3523.708 3122.81H493.36c-32.237 0-58.378-26.141-58.378-58.38v-240.327c0-32.237 26.141-58.378 58.378-58.378l3030.348.027c32.237 0 58.378 26.141 58.378 58.38v240.327c0 32.237-26.141 58.351-58.378 58.351zM551.74 3006.052h2913.587v-123.569l-2913.587.027z" clip-rule="evenodd" fill="#8d4d2e" opacity="1" data-original="#000000" class=""></path><path fill-rule="evenodd" d="M2240.734 2882.51c-32.24 0-58.38-26.141-58.38-58.378v-1021.64c0-32.237 26.14-58.38 58.38-58.38 32.237 0 58.378 26.143 58.378 58.38v1021.64c0 32.237-26.141 58.378-58.378 58.378zm-261.144 0c-32.237 0-58.378-26.141-58.378-58.378v-1021.64c0-32.237 26.141-58.38 58.378-58.38 32.24 0 58.38 26.143 58.38 58.38v1021.64c.001 32.237-26.14 58.378-58.38 58.378z" clip-rule="evenodd" fill="#8d4d2e" opacity="1" data-original="#000000" class=""></path><path fill-rule="evenodd" d="M2293.73 1860.869h-367.109c-32.237 0-58.378-26.14-58.378-58.378v-181.674c0-32.237 26.141-58.378 58.378-58.378l367.109.027c32.237 0 58.381 26.141 58.381 58.38v181.673c-.029 32.21-26.17 58.35-58.381 58.35zm-308.728-116.757h250.321v-64.914h-250.321zM3449.922 2297.891H2240.734c-32.24 0-58.38-26.141-58.38-58.378s26.14-58.38 58.38-58.38h1209.188c39.817 0 72.192-32.376 72.192-72.19 0-39.818-32.375-72.193-72.192-72.193H2240.734c-32.24 0-58.38-26.141-58.38-58.378s26.14-58.38 58.38-58.38h1209.188c104.182 0 188.951 84.77 188.951 188.952 0 104.18-84.769 188.947-188.951 188.947z" clip-rule="evenodd" fill="#8d4d2e" opacity="1" data-original="#000000" class=""></path><path fill-rule="evenodd" d="M2469.719 2297.891a57.874 57.874 0 0 1-18.481-3.019c-30.59-10.189-47.121-43.25-36.905-73.84l87.048-261.141c10.189-30.59 43.249-47.12 73.839-36.905 30.59 10.186 47.121 43.249 36.905 73.837l-87.047 261.142c-8.155 24.467-30.918 39.926-55.359 39.926zM2734.624 2297.891a57.87 57.87 0 0 1-18.481-3.019c-30.59-10.189-47.121-43.25-36.905-73.84l87.047-261.141c10.188-30.59 43.277-47.12 73.84-36.905 30.59 10.186 47.121 43.249 36.905 73.837l-87.048 261.142c-8.126 24.467-30.918 39.926-55.358 39.926zM2999.556 2297.891a57.85 57.85 0 0 1-18.48-3.019c-30.59-10.189-47.121-43.25-36.907-73.84l87.047-261.141c10.188-30.59 43.249-47.12 73.839-36.905 30.591 10.186 47.121 43.249 36.908 73.837l-87.048 261.142c-8.155 24.467-30.92 39.926-55.359 39.926zM3264.487 2297.891a57.859 57.859 0 0 1-18.48-3.019c-30.591-10.189-47.121-43.25-36.906-73.84l87.048-261.141c10.186-30.59 43.249-47.12 73.839-36.905 30.588 10.186 47.12 43.249 36.905 73.837l-87.047 261.142c-8.156 24.467-30.92 39.926-55.359 39.926z" clip-rule="evenodd" fill="#8d4d2e" opacity="1" data-original="#000000" class=""></path></g></svg>