<svg xmlns="http://www.w3.org/2000/svg" version="1.1" xmlns:xlink="http://www.w3.org/1999/xlink" width="50" height="50" x="0" y="0" viewBox="0 0 48 48" style="enable-background:new 0 0 512 512" xml:space="preserve" class=""><g><path d="M4 44.5h40c.28 0 .5-.22.5-.5s-.22-.5-.5-.5H4c-.28 0-.5.22-.5.5s.22.5.5.5zM44.5 36c0-.28-.22-.5-.5-.5h-5.5v-15H44c.28 0 .5-.22.5-.5s-.22-.5-.5-.5h-6c-.28 0-.5.22-.5.5v16c0 .28.22.5.5.5h6c.28 0 .5-.22.5-.5zM4 35.5c-.28 0-.5.22-.5.5s.22.5.5.5h6c.28 0 .5-.22.5-.5V20c0-.28-.22-.5-.5-.5H4c-.28 0-.5.22-.5.5s.22.5.5.5h5.5v15zM4.5 39.5c-.28 0-.5.22-.5.5s.22.5.5.5h3c.28 0 .5-.22.5-.5s-.22-.5-.5-.5zM10 40c0 .28.22.5.5.5h3c.28 0 .5-.22.5-.5s-.22-.5-.5-.5h-3c-.28 0-.5.22-.5.5zM16.5 40.5h3c.28 0 .5-.22.5-.5s-.22-.5-.5-.5h-3c-.28 0-.5.22-.5.5s.22.5.5.5zM22.5 39.5c-.28 0-.5.22-.5.5s.22.5.5.5h3c.28 0 .5-.22.5-.5s-.22-.5-.5-.5zM28.5 40.5h3c.28 0 .5-.22.5-.5s-.22-.5-.5-.5h-3c-.28 0-.5.22-.5.5s.22.5.5.5zM34.5 40.5h3c.28 0 .5-.22.5-.5s-.22-.5-.5-.5h-3c-.28 0-.5.22-.5.5s.22.5.5.5zM40.5 39.5c-.28 0-.5.22-.5.5s.22.5.5.5h3c.28 0 .5-.22.5-.5s-.22-.5-.5-.5zM4.5 15.5c-.28 0-.5.22-.5.5s.22.5.5.5h3c.28 0 .5-.22.5-.5s-.22-.5-.5-.5zM14 16c0-.28-.22-.5-.5-.5h-3c-.28 0-.5.22-.5.5s.22.5.5.5h3c.28 0 .5-.22.5-.5zM16 16c0 .28.22.5.5.5h3c.28 0 .5-.22.5-.5s-.22-.5-.5-.5h-3c-.28 0-.5.22-.5.5zM22.5 15.5c-.28 0-.5.22-.5.5s.22.5.5.5h3c.28 0 .5-.22.5-.5s-.22-.5-.5-.5zM31.5 15.5h-3c-.28 0-.5.22-.5.5s.22.5.5.5h3c.28 0 .5-.22.5-.5s-.22-.5-.5-.5zM34.5 15.5c-.28 0-.5.22-.5.5s.22.5.5.5h3c.28 0 .5-.22.5-.5s-.22-.5-.5-.5zM40.5 15.5c-.28 0-.5.22-.5.5s.22.5.5.5h3c.28 0 .5-.22.5-.5s-.22-.5-.5-.5zM18 3.5c-.28 0-.5.22-.5.5v8c0 .28.22.5.5.5h12c.28 0 .5-.22.5-.5V4.5c0-.28-.22-.5-.5-.5s-.5.22-.5.5v7h-11V4c0-.28-.22-.5-.5-.5zM14.5 6c0-.28-.22-.5-.5-.5s-.5.22-.5.5v3c0 .28.22.5.5.5s.5-.22.5-.5zM14.5 22.5c0-.28-.22-.5-.5-.5s-.5.22-.5.5v3c0 .28.22.5.5.5s.5-.22.5-.5zM14.5 31.5v-3c0-.28-.22-.5-.5-.5s-.5.22-.5.5v3c0 .28.22.5.5.5s.5-.22.5-.5zM30.5 36V20c0-.28-.22-.5-.5-.5H18c-.28 0-.5.22-.5.5v16c0 .28.22.5.5.5h12c.28 0 .5-.22.5-.5zm-1-.5h-11v-15h11zM38 4c-.28 0-.5.22-.5.5V12c0 .28.22.5.5.5h6c.28 0 .5-.22.5-.5s-.22-.5-.5-.5h-5.5v-7c0-.28-.22-.5-.5-.5zM34 6c-.28 0-.5.22-.5.5v3c0 .28.22.5.5.5s.5-.22.5-.5v-3c0-.28-.22-.5-.5-.5zM33.5 26c0 .28.22.5.5.5s.5-.22.5-.5v-3c0-.28-.22-.5-.5-.5s-.5.22-.5.5zM33.5 32c0 .28.22.5.5.5s.5-.22.5-.5v-3c0-.28-.22-.5-.5-.5s-.5.22-.5.5zM4 12.5h6c.28 0 .5-.22.5-.5V4c0-.28-.22-.5-.5-.5s-.5.22-.5.5v7.5H4c-.28 0-.5.22-.5.5s.22.5.5.5z" fill="#8d4d2e" opacity="1" data-original="#000000" class=""></path><path d="M24 30.5c.16 0 .32-.08.41-.22.35-.5 2.09-3.08 2.09-4.28a2.5 2.5 0 0 0-5 0c0 1.2 1.74 3.78 2.09 4.28.09.14.25.22.41.22zm0-6c.83 0 1.5.67 1.5 1.5 0 .55-.78 1.97-1.5 3.1-.72-1.12-1.5-2.55-1.5-3.1 0-.83.67-1.5 1.5-1.5z" fill="#8d4d2e" opacity="1" data-original="#000000" class=""></path><path d="M24.35 26.35c.1-.09.15-.22.15-.35s-.05-.26-.15-.35a.491.491 0 0 0-.54-.11c-.06.02-.12.06-.16.11-.05.04-.09.1-.11.16-.03.06-.04.13-.04.19s.01.13.04.19c.02.06.06.12.11.16.09.1.22.15.35.15s.26-.05.35-.15z" fill="#8d4d2e" opacity="1" data-original="#000000" class=""></path></g></svg>