<svg xmlns="http://www.w3.org/2000/svg" version="1.1" xmlns:xlink="http://www.w3.org/1999/xlink" width="50" height="50" x="0" y="0" viewBox="0 0 512 512" style="enable-background:new 0 0 512 512" xml:space="preserve" class=""><g><path d="M511.89 43.442a7 7 0 0 0-6.89-5.781h-.14c-29.75.583-57.7 5.594-84.043 15.116A144.137 144.137 0 0 0 309.831.811c-79.715 0-144.567 64.853-144.567 144.567s64.852 144.567 144.567 144.567S454.4 225.092 454.4 145.378a143.274 143.274 0 0 0-12.95-59.86q32.593-22.773 65.824-34.233a7 7 0 0 0 4.616-7.843zm-71.5 101.936c0 71.993-58.571 130.563-130.563 130.563a130.563 130.563 0 1 1 97.191-217.7c-38.756 16.717-73.949 43.678-106.213 81.22a74.537 74.537 0 0 0-39.95-14.033c-16.285-.7-32.826 4.192-47.828 14.179a7 7 0 0 0 2.709 12.731c25.862 4.386 56.937 32.149 83.127 74.265a7 7 0 0 0 5.82 3.3h.127a7 7 0 0 0 5.808-3.093c38.591-57.335 78.485-101.728 119.249-132.839a129.387 129.387 0 0 1 10.527 51.407zm-135.425 64.879c-13.965-20.768-39.451-53.148-69.842-66.507 21.416-8.342 43.835-4.7 62.215 10.707a7 7 0 0 0 9.883-.89c45.166-54.336 96.241-86.529 155.2-97.594C408.1 85.711 355.32 137.405 304.965 210.257zm166.978 53.118a28.862 28.862 0 0 0-24.168.808q-.165.084-.324.177l-126.409 73.413c-5.328-13.154-16.083-23.587-29.176-27.719l-100.628-31.719c-22.008-6.945-40.526.568-57.258 9.72l-66.035 36.157-6.745-13.19a7 7 0 0 0-9.422-3.047L3.818 332.5a7 7 0 0 0-3.047 9.422l84.585 165.453a7 7 0 0 0 9.422 3.046L142.74 485.9a7 7 0 0 0 3.048-9.422l-6.726-13.156 6.315-2.992a65.837 65.837 0 0 1 44.558-5.146l61.7 13.462a117.3 117.3 0 0 0 24.954 3.153c12.424 0 25.011-2.986 36.437-12.27l156.333-127.183c1.419-1.166 2.914-2.328 4.5-3.559 11.752-9.137 29.511-22.944 16.538-48.326a35.783 35.783 0 0 0-18.454-17.086zM94.638 494.766l-78.212-152.99L51.92 323.63l78.212 152.991zm370.623-177.034c-1.587 1.233-3.228 2.51-4.766 3.773L304.2 448.666c-11.817 9.6-26.174 11.428-49.566 6.3l-61.706-13.463a80.195 80.195 0 0 0-53.563 6.182l-6.676 3.164-58.367-114.163 66.378-36.347c16.652-9.108 30.211-13.733 46.323-8.649l100.628 31.719c11.012 3.475 20 14.006 22.361 26.2 1.945 10.083-1.188 20.217-8.177 26.448-6 5.352-13.922 6.845-22.3 4.207L211.7 358.9a7 7 0 1 0-4.208 13.355l67.834 21.375a40.332 40.332 0 0 0 12.127 1.917 35.2 35.2 0 0 0 23.7-9.028c9.451-8.428 14.305-21.311 13.274-34.516l129.875-75.426a15.1 15.1 0 0 1 12.45-.189 21.783 21.783 0 0 1 11.17 10.455c7.346 14.357.345 20.778-12.661 30.889z" fill="#8d4d2e" opacity="1" data-original="#000000" class=""></path></g></svg>