<svg xmlns="http://www.w3.org/2000/svg" version="1.1" xmlns:xlink="http://www.w3.org/1999/xlink" width="75" height="75" x="0" y="0" viewBox="0 0 300 300" style="enable-background:new 0 0 512 512" xml:space="preserve" class=""><g><path d="M220.397 128.369a4.276 4.276 0 1 0 0-8.552 4.276 4.276 0 0 0 0 8.552zM59.375 81.047c.781.781 1.805 1.172 2.828 1.172s2.047-.391 2.828-1.172l3.172-3.172 3.172 3.172c.781.781 1.805 1.172 2.828 1.172s2.047-.391 2.828-1.172a4 4 0 0 0 0-5.656l-3.172-3.172 3.172-3.172a4 4 0 1 0-5.656-5.656l-3.172 3.172-3.172-3.172a4 4 0 1 0-5.656 5.656l3.172 3.172-3.172 3.172a3.997 3.997 0 0 0 0 5.656zM104 58c6.617 0 12-5.383 12-12s-5.383-12-12-12-12 5.383-12 12 5.382 12 12 12zm0-16c2.205 0 4 1.795 4 4s-1.795 4-4 4-4-1.795-4-4 1.795-4 4-4zM265.828 214.441c-.623-.319-14.495-7.341-33.828-6.58V206c0-2.209-1.789-4-4-4h-39.744c25.296-9.804 44.429-23.071 45.479-23.807a4.001 4.001 0 0 0 .984-5.57l-.672-.961c6.704-3.236 19.067-10.121 25.282-19.443a3.998 3.998 0 0 0-1.109-5.547 3.994 3.994 0 0 0-5.547 1.109c-5.498 8.249-17.711 14.629-23.28 17.228l-1.552-2.218a3.999 3.999 0 0 0-5.555-.996c-1.48 1.024-35.473 24.264-70.285 29.567V190c0-2.209-1.789-4-4-4H36a4 4 0 0 0 0 8h108v40H36a4 4 0 0 0 0 8h112c2.211 0 4-1.791 4-4v-2.587c12.291 3.122 42.441 11.499 63.039 23.269a3.977 3.977 0 0 0 3.035.386 4.003 4.003 0 0 0 2.422-1.875l1.143-2.001c5.551 2.483 18.222 7.659 33.575 10.729a4 4 0 0 0 1.57-7.844c-13.853-2.771-25.606-7.451-31.15-9.877l.814-1.425a3.998 3.998 0 0 0-1.488-5.457c-14.356-8.204-32.232-14.748-46.852-19.318H228c2.211 0 4-1.791 4-4v-2.122c17.27-.735 30.043 5.616 30.18 5.683a3.998 3.998 0 0 0 5.378-1.733 4.003 4.003 0 0 0-1.73-5.387zm-42.309-43.873 2.301 3.291c-9.157 5.932-35.795 21.947-65.038 28.141H152v-2.542c31.099-4.401 61.57-22.507 71.519-28.89zm-8.015 79.241c-22.469-11.906-53.061-20.059-63.504-22.645v-4.127c9.785 2.362 41.654 10.616 65.488 23.297zM224 214h-72v-4h72z" fill="#8d4d2e" opacity="1" data-original="#000000" class=""></path><path d="M132 170c26.469 0 48-21.533 48-48s-21.531-48-48-48c-26.467 0-48 21.533-48 48s21.533 48 48 48zm0-88c22.055 0 40 17.943 40 40s-17.945 40-40 40c-22.057 0-40-17.943-40-40s17.943-40 40-40z" fill="#8d4d2e" opacity="1" data-original="#000000" class=""></path><path d="M112 130h12v20a3.999 3.999 0 0 0 7.43 2.059l24-40A4.002 4.002 0 0 0 152 106h-12V90a4 4 0 0 0-2.842-3.828 3.994 3.994 0 0 0-4.486 1.609l-24 36A3.999 3.999 0 0 0 112 130zm20-26.789V110a4 4 0 0 0 4 4h8.934L132 135.559V126a4 4 0 0 0-4-4h-8.525z" fill="#8d4d2e" opacity="1" data-original="#000000" class=""></path></g></svg>